<svg xmlns="http://www.w3.org/2000/svg" 
     xml:space="preserve" 
     id="Layer_1" 
     x="0px" y="0px" 
     viewBox="0 0 750 750">
  <style type="text/css">
    .st2{fill:#DE3423}
  </style>
  <linearGradient id="SVGID_00000045593169512768540550000017046176230312069272_" 
                  x1="316.093" x2="576.348" 
                  y1="403.717" y2="403.717" 
                  gradientUnits="userSpaceOnUse">
    <stop offset="0" style="stop-color:#DE3423"/>
    <stop offset=".402" style="stop-color:#9F271E"/>
  </linearGradient>
  <path d="M431.65,278.37l-115.56,0
			c9.63,0,96.54,250.69,144.69,250.69l115.56,0C528.2,529.06,441.28,278.37,431.65,278.37" 
        style="fill:url(#SVGID_00000045593169512768540550000017046176230312069272_)"/>
  <path d="M577.28,529.06l-115.56,0c9.63,0,28.89-308.16,77.04-308.16l115.56,0
			C606.17,220.9,586.91,529.06,577.28,529.06" 
        class="st2"/>
  <linearGradient id="SVGID_00000035524704555955103290000015570076955019399323_" 
                  x1="191.157" x2="191.157" 
                  y1="266.663" y2="570.159" 
                  gradientUnits="userSpaceOnUse">
    <stop offset="0" style="stop-color:#DE3423"/>
    <stop offset=".4022" style="stop-color:#A2291F"/>
  </linearGradient>
  <path d="M171.9,529.06l115.56,0
			c-9.63,0-28.89-308.16-77.04-308.16l-115.56,0C143.01,220.9,162.27,529.06,171.9,529.06" 
        style="fill:url(#SVGID_00000035524704555955103290000015570076955019399323_)"/>
  <path d="M316.18,278.37l115.56,0c-9.63,0-96.54,250.69-144.69,250.69l-115.56,0
			C219.63,529.06,306.55,278.37,316.18,278.37" 
        class="st2"/>
</svg>
