<?xml version="1.0" encoding="utf-8"?>
<!-- Generator: Adobe Illustrator 26.1.0, SVG Export Plug-In . SVG Version: 6.00 Build 0)  -->
<svg version="1.1" id="Layer_1" xmlns="http://www.w3.org/2000/svg" xmlns:xlink="http://www.w3.org/1999/xlink" x="0px" y="0px"
	 viewBox="0 0 750 750" style="enable-background:new 0 0 750 750;" xml:space="preserve">
<style type="text/css">
	.st0{fill:#231F20;}
	.st1{fill:#FFFFFF;}
	.st2{fill:url(#SVGID_1_);}
	.st3{fill:#DE3423;}
	.st4{fill:url(#SVGID_00000073690922413452801420000001962249586324506535_);}
</style>
<g>
	<path class="st0" d="M705.07,750H44.93C20.12,750,0,729.88,0,705.07V44.93C0,20.12,20.12,0,44.93,0h660.14
		C729.88,0,750,20.12,750,44.93v660.14C750,729.88,729.88,750,705.07,750z"/>
	<g>
		<g>
			<path class="st1" d="M161.87,600.04h3.56l11.26,38.34c0.64,2.28,1.21,4.7,1.85,7.62c0.85-3.35,1.5-5.34,2.21-7.62l12.33-38.34
				h3.42l12.4,38.34c0.78,2.35,1.43,4.77,2.14,7.55c0.71-3.49,1.35-5.91,1.85-7.55l11.4-38.34h3.49l-15.11,50.59h-3.13l-14.75-45.61
				l-14.68,45.61h-3.28L161.87,600.04z"/>
			<path class="st1" d="M260.19,651.49c-14.04,0-23.87-10.83-23.87-26.15c0-15.32,9.9-26.15,23.87-26.15
				c14.04,0,23.94,10.83,23.94,26.15C284.13,640.66,274.23,651.49,260.19,651.49z M260.19,602.47c-11.97,0-20.38,9.4-20.38,22.87
				c0,13.47,8.41,22.87,20.38,22.87c12.04,0,20.45-9.4,20.45-22.87C280.64,611.87,272.23,602.47,260.19,602.47z"/>
			<path class="st1" d="M299.44,650.64v-50.59h18.67c9.62,0,15.68,5.56,15.68,14.18c0,7.41-4.13,12.68-10.9,14.11l11.33,22.3h-3.85
				l-11.04-21.88h-16.46v21.88H299.44z M302.86,625.63h15.39c7.63,0,12.04-4.28,12.04-11.26c0-7.2-4.77-11.19-12.19-11.19h-15.25
				V625.63z"/>
			<path class="st1" d="M353.23,632.25l26.01-32.21h4.13l-17.32,21.38l17.67,29.22h-3.99l-15.96-26.44l-10.55,13.04v13.4h-3.42
				v-50.59h3.42V632.25z"/>
			<path class="st1" d="M407.38,599.19c8.69,0,14.47,4.84,15.46,12.97h-3.56c-0.71-6.27-4.99-9.83-11.9-9.83
				c-7.84,0-13.04,4.13-13.04,10.47c0,4.84,2.92,8.05,8.69,9.55l8.98,2.28c7.63,1.92,11.69,6.49,11.69,12.97
				c0,8.48-6.56,13.89-16.67,13.89c-9.48,0-15.89-4.92-16.67-12.83h3.63c0.29,5.77,5.49,9.62,13.04,9.62
				c8.05,0,13.25-4.13,13.25-10.62c0-4.99-2.92-8.33-8.91-9.83l-8.77-2.21c-7.62-1.92-11.69-6.27-11.69-12.83
				C390.92,604.53,397.41,599.19,407.38,599.19z"/>
			<path class="st1" d="M439.01,650.64v-50.59h3.42v23.3h29.43v-23.3h3.42v50.59h-3.42v-24.16h-29.43v24.16H439.01z"/>
			<path class="st1" d="M514.46,651.49c-14.04,0-23.87-10.83-23.87-26.15c0-15.32,9.9-26.15,23.87-26.15
				c14.04,0,23.94,10.83,23.94,26.15C538.41,640.66,528.5,651.49,514.46,651.49z M514.46,602.47c-11.97,0-20.38,9.4-20.38,22.87
				c0,13.47,8.41,22.87,20.38,22.87c12.04,0,20.45-9.4,20.45-22.87C534.92,611.87,526.51,602.47,514.46,602.47z"/>
			<path class="st1" d="M557.14,631.61v19.02h-3.42v-50.59h18.88c9.62,0,15.53,6.27,15.53,15.68c0,8.91-5.99,15.89-15.53,15.89
				H557.14z M557.14,603.18v25.3h14.89c7.91,0,12.61-5.35,12.61-12.9c0-7.62-4.77-12.4-12.18-12.4H557.14z"/>
		</g>
	</g>
	<g>
		<path class="st1" d="M172.34,514.45h35.2v3.13h-15.89v47.46h-3.42v-47.46h-15.89V514.45z"/>
		<path class="st1" d="M220.36,565.04v-50.59h3.42v23.3h29.43v-23.3h3.42v50.59h-3.42v-24.16h-29.43v24.16H220.36z"/>
		<path class="st1" d="M275.15,565.04v-50.59h29.72v3.13h-26.29v20.52h23.94v3.13h-23.94v20.67h26.36v3.13H275.15z"/>
		<path class="st1" d="M360.29,513.59c8.69,0,14.47,4.84,15.46,12.97h-3.56c-0.71-6.27-4.99-9.83-11.9-9.83
			c-7.84,0-13.04,4.13-13.04,10.47c0,4.84,2.92,8.05,8.69,9.55l8.98,2.28c7.63,1.92,11.69,6.49,11.69,12.97
			c0,8.48-6.56,13.89-16.67,13.89c-9.48,0-15.89-4.92-16.67-12.83h3.63c0.29,5.77,5.49,9.62,13.04,9.62
			c8.05,0,13.25-4.13,13.25-10.62c0-4.99-2.92-8.33-8.91-9.83l-8.77-2.21c-7.62-1.92-11.69-6.27-11.69-12.83
			C343.83,518.94,350.31,513.59,360.29,513.59z"/>
		<path class="st1" d="M388.71,539.74c0-15.46,9.69-26.15,23.73-26.15c10.33,0,18.74,6.41,20.95,16.03h-3.78
			c-2.28-7.84-8.98-12.76-17.39-12.76c-11.9,0-20.02,9.26-20.02,22.87c0,13.61,8.12,22.8,20.02,22.8c8.41,0,15.32-4.7,17.67-11.97
			h3.78c-2.42,9.12-11.12,15.25-21.52,15.25C398.33,565.82,388.71,555.14,388.71,539.74z"/>
		<path class="st1" d="M441.86,565.04l18.74-50.59h5.06l18.95,50.59h-3.49l-5.34-14.18h-25.23l-5.27,14.18H441.86z M451.69,547.73
			h22.95l-11.12-29.64c-0.14-0.43-0.36-0.93-0.43-1.28c-0.07,0.28-0.29,0.93-0.43,1.28L451.69,547.73z"/>
		<path class="st1" d="M501.21,561.91h24.08v3.13h-27.5v-50.59h3.42V561.91z"/>
		<path class="st1" d="M534.9,565.04l18.74-50.59h5.06l18.95,50.59h-3.49l-5.34-14.18H543.6l-5.27,14.18H534.9z M544.74,547.73
			h22.95l-11.12-29.64c-0.14-0.43-0.36-0.93-0.43-1.28c-0.07,0.28-0.29,0.93-0.43,1.28L544.74,547.73z"/>
	</g>
	<g>
		<linearGradient id="SVGID_1_" gradientUnits="userSpaceOnUse" x1="316.5071" y1="307.6281" x2="576.7615" y2="307.6281">
			<stop  offset="0" style="stop-color:#DE3423"/>
			<stop  offset="0.4022" style="stop-color:#9F271E"/>
		</linearGradient>
		<path class="st2" d="M432.07,182.28l-115.56,0c9.63,0,96.54,250.69,144.69,250.69l115.56,0
			C528.61,432.98,441.7,182.28,432.07,182.28"/>
		<path class="st3" d="M577.69,432.98l-115.56,0c9.63,0,28.89-308.16,77.04-308.16l115.56,0
			C606.58,124.81,587.32,432.98,577.69,432.98"/>
		
			<linearGradient id="SVGID_00000176756965653017474330000006138066287916188566_" gradientUnits="userSpaceOnUse" x1="191.5709" y1="170.5745" x2="191.5709" y2="474.0699">
			<stop  offset="0" style="stop-color:#DE3423"/>
			<stop  offset="0.4022" style="stop-color:#A2291F"/>
		</linearGradient>
		<path style="fill:url(#SVGID_00000176756965653017474330000006138066287916188566_);" d="M172.31,432.98l115.56,0
			c-9.63,0-28.89-308.16-77.04-308.16l-115.56,0C143.42,124.81,162.68,432.98,172.31,432.98"/>
		<path class="st3" d="M316.59,182.28l115.56,0c-9.63,0-96.54,250.69-144.69,250.69l-115.56,0
			C220.05,432.98,306.96,182.28,316.59,182.28"/>
	</g>
</g>
</svg>
