<?xml version="1.0" encoding="utf-8"?>
<!-- Generator: Adobe Illustrator 26.1.0, SVG Export Plug-In . SVG Version: 6.00 Build 0)  -->
<svg version="1.1" id="Layer_1" xmlns="http://www.w3.org/2000/svg" xmlns:xlink="http://www.w3.org/1999/xlink" x="0px" y="0px"
	 viewBox="0 0 750 750" style="enable-background:new 0 0 750 750;" xml:space="preserve">
<style type="text/css">
	.st0{fill:#231F20;}
	.st1{fill:url(#SVGID_1_);}
	.st2{fill:#DE3423;}
	.st3{fill:url(#SVGID_00000109744502666645205640000000886871852275660934_);}
</style>
<g>
	<path class="st0" d="M705.07,750H44.93C20.12,750,0,729.88,0,705.07V44.93C0,20.12,20.12,0,44.93,0h660.14
		C729.88,0,750,20.12,750,44.93v660.14C750,729.88,729.88,750,705.07,750z"/>
	<g>
		<linearGradient id="SVGID_1_" gradientUnits="userSpaceOnUse" x1="316.5071" y1="403.7342" x2="576.7615" y2="403.7342">
			<stop  offset="0" style="stop-color:#DE3423"/>
			<stop  offset="0.4022" style="stop-color:#9F271E"/>
		</linearGradient>
		<path class="st1" d="M432.07,278.39l-115.56,0c9.63,0,96.54,250.69,144.69,250.69l115.56,0
			C528.61,529.08,441.7,278.39,432.07,278.39"/>
		<path class="st2" d="M577.69,529.08l-115.56,0c9.63,0,28.89-308.16,77.04-308.16l115.56,0
			C606.58,220.92,587.32,529.08,577.69,529.08"/>
		
			<linearGradient id="SVGID_00000069387501538663894850000006684792039992302752_" gradientUnits="userSpaceOnUse" x1="191.5709" y1="266.6807" x2="191.5709" y2="570.176">
			<stop  offset="0" style="stop-color:#DE3423"/>
			<stop  offset="0.4022" style="stop-color:#A2291F"/>
		</linearGradient>
		<path style="fill:url(#SVGID_00000069387501538663894850000006684792039992302752_);" d="M172.31,529.08l115.56,0
			c-9.63,0-28.89-308.16-77.04-308.16l-115.56,0C143.42,220.92,162.68,529.08,172.31,529.08"/>
		<path class="st2" d="M316.59,278.39l115.56,0c-9.63,0-96.54,250.69-144.69,250.69l-115.56,0
			C220.05,529.08,306.96,278.39,316.59,278.39"/>
	</g>
</g>
</svg>
